<?xml version="1.0" encoding="utf-8"?>
<!-- Generator: Adobe Illustrator 21.0.0, SVG Export Plug-In . SVG Version: 6.00 Build 0)  -->
<svg version="1.1" id="Layer_1" xmlns="http://www.w3.org/2000/svg" xmlns:xlink="http://www.w3.org/1999/xlink" x="0px" y="0px"
	 viewBox="0 0 971 818" style="enable-background:new 0 0 971 818;" xml:space="preserve">
<style type="text/css">
	.st0{fill:#E5EEC1;}
	.st1{fill:#3EACA8;}
	.st2{fill:#FFFFFF;}
	.st3{font-family:'Avenir-Light';}
	.st4{font-size:13.6089px;}
	.st5{font-size:28.1964px;}
</style>
<g>
	<rect x="1" y="48" class="st0" width="56" height="56"/>
	<path class="st1" d="M56,49v54H2V49H56 M58,47H0v58h58V47L58,47z"/>
</g>
<g>
	<rect x="1" y="104" class="st0" width="56" height="56"/>
	<path class="st1" d="M56,105v54H2v-54H56 M58,103H0v58h58V103L58,103z"/>
</g>
<g>
	<rect x="1" y="496" class="st0" width="56" height="56"/>
	<path class="st1" d="M56,497v54H2v-54H56 M58,495H0v58h58V495L58,495z"/>
</g>
<g>
	<rect x="1" y="440" class="st0" width="56" height="56"/>
	<path class="st1" d="M56,441v54H2v-54H56 M58,439H0v58h58V439L58,439z"/>
</g>
<g>
	<rect x="1" y="160" class="st0" width="56" height="56"/>
	<path class="st1" d="M56,161v54H2v-54H56 M58,159H0v58h58V159L58,159z"/>
</g>
<g>
	<rect x="1" y="552" class="st0" width="56" height="56"/>
	<path class="st1" d="M56,553v54H2v-54H56 M58,551H0v58h58V551L58,551z"/>
</g>
<g>
	<rect x="1" y="608" class="st0" width="56" height="56"/>
	<path class="st1" d="M56,609v54H2v-54H56 M58,607H0v58h58V607L58,607z"/>
</g>
<g>
	<rect x="1" y="664" class="st0" width="56" height="56"/>
	<path class="st1" d="M56,665v54H2v-54H56 M58,663H0v58h58V663L58,663z"/>
</g>
<g>
	<rect x="125" y="1" class="st0" width="56" height="56"/>
	<path class="st1" d="M180,2v54h-54V2H180 M182,0h-58v58h58V0L182,0z"/>
</g>
<g>
	<rect x="125" y="57" class="st0" width="56" height="56"/>
	<path class="st1" d="M180,58v54h-54V58H180 M182,56h-58v58h58V56L182,56z"/>
</g>
<g>
	<rect x="125" y="449" class="st0" width="56" height="56"/>
	<path class="st1" d="M180,450v54h-54v-54H180 M182,448h-58v58h58V448L182,448z"/>
</g>
<g>
	<rect x="125" y="393" class="st0" width="56" height="56"/>
	<path class="st1" d="M180,394v54h-54v-54H180 M182,392h-58v58h58V392L182,392z"/>
</g>
<g>
	<rect x="125" y="113" class="st0" width="56" height="56"/>
	<path class="st1" d="M180,114v54h-54v-54H180 M182,112h-58v58h58V112L182,112z"/>
</g>
<g>
	<rect x="125" y="169" class="st0" width="56" height="56"/>
	<path class="st1" d="M180,170v54h-54v-54H180 M182,168h-58v58h58V168L182,168z"/>
</g>
<g>
	<rect x="125" y="225" class="st0" width="56" height="56"/>
	<path class="st1" d="M180,226v54h-54v-54H180 M182,224h-58v58h58V224L182,224z"/>
</g>
<g>
	<rect x="125" y="281" class="st0" width="56" height="56"/>
	<path class="st1" d="M180,282v54h-54v-54H180 M182,280h-58v58h58V280L182,280z"/>
</g>
<g>
	<rect x="125" y="337" class="st0" width="56" height="56"/>
	<path class="st1" d="M180,338v54h-54v-54H180 M182,336h-58v58h58V336L182,336z"/>
</g>
<g>
	<rect x="181" y="1" class="st0" width="56" height="56"/>
	<path class="st1" d="M236,2v54h-54V2H236 M238,0h-58v58h58V0L238,0z"/>
</g>
<g>
	<rect x="181" y="57" class="st0" width="56" height="56"/>
	<path class="st1" d="M236,58v54h-54V58H236 M238,56h-58v58h58V56L238,56z"/>
</g>
<g>
	<rect x="181" y="449" class="st0" width="56" height="56"/>
	<path class="st1" d="M236,450v54h-54v-54H236 M238,448h-58v58h58V448L238,448z"/>
</g>
<g>
	<rect x="181" y="393" class="st0" width="56" height="56"/>
	<path class="st1" d="M236,394v54h-54v-54H236 M238,392h-58v58h58V392L238,392z"/>
</g>
<g>
	<rect x="181" y="113" class="st0" width="56" height="56"/>
	<path class="st1" d="M236,114v54h-54v-54H236 M238,112h-58v58h58V112L238,112z"/>
</g>
<g>
	<rect x="181" y="169" class="st0" width="56" height="56"/>
	<path class="st1" d="M236,170v54h-54v-54H236 M238,168h-58v58h58V168L238,168z"/>
</g>
<g>
	<rect x="181" y="225" class="st0" width="56" height="56"/>
	<path class="st1" d="M236,226v54h-54v-54H236 M238,224h-58v58h58V224L238,224z"/>
</g>
<g>
	<rect x="181" y="281" class="st0" width="56" height="56"/>
	<path class="st1" d="M236,282v54h-54v-54H236 M238,280h-58v58h58V280L238,280z"/>
</g>
<g>
	<rect x="181" y="337" class="st0" width="56" height="56"/>
	<path class="st1" d="M236,338v54h-54v-54H236 M238,336h-58v58h58V336L238,336z"/>
</g>
<g>
	<rect x="275" y="1" class="st0" width="56" height="56"/>
	<path class="st1" d="M330,2v54h-54V2H330 M332,0h-58v58h58V0L332,0z"/>
</g>
<g>
	<rect x="275" y="57" class="st0" width="56" height="56"/>
	<path class="st1" d="M330,58v54h-54V58H330 M332,56h-58v58h58V56L332,56z"/>
</g>
<g>
	<rect x="275" y="449" class="st0" width="56" height="56"/>
	<path class="st1" d="M330,450v54h-54v-54H330 M332,448h-58v58h58V448L332,448z"/>
</g>
<g>
	<rect x="275" y="393" class="st0" width="56" height="56"/>
	<path class="st1" d="M330,394v54h-54v-54H330 M332,392h-58v58h58V392L332,392z"/>
</g>
<g>
	<rect x="275" y="113" class="st0" width="56" height="56"/>
	<path class="st1" d="M330,114v54h-54v-54H330 M332,112h-58v58h58V112L332,112z"/>
</g>
<g>
	<rect x="275" y="169" class="st0" width="56" height="56"/>
	<path class="st1" d="M330,170v54h-54v-54H330 M332,168h-58v58h58V168L332,168z"/>
</g>
<g>
	<rect x="275" y="225" class="st0" width="56" height="56"/>
	<path class="st1" d="M330,226v54h-54v-54H330 M332,224h-58v58h58V224L332,224z"/>
</g>
<g>
	<rect x="275" y="281" class="st0" width="56" height="56"/>
	<path class="st1" d="M330,282v54h-54v-54H330 M332,280h-58v58h58V280L332,280z"/>
</g>
<g>
	<rect x="275" y="337" class="st0" width="56" height="56"/>
	<path class="st1" d="M330,338v54h-54v-54H330 M332,336h-58v58h58V336L332,336z"/>
</g>
<g>
	<rect x="275" y="505" class="st0" width="56" height="56"/>
	<path class="st1" d="M330,506v54h-54v-54H330 M332,504h-58v58h58V504L332,504z"/>
</g>
<g>
	<rect x="331" y="1" class="st0" width="56" height="56"/>
	<path class="st1" d="M386,2v54h-54V2H386 M388,0h-58v58h58V0L388,0z"/>
</g>
<g>
	<rect x="331" y="57" class="st0" width="56" height="56"/>
	<path class="st1" d="M386,58v54h-54V58H386 M388,56h-58v58h58V56L388,56z"/>
</g>
<g>
	<rect x="331" y="449" class="st0" width="56" height="56"/>
	<path class="st1" d="M386,450v54h-54v-54H386 M388,448h-58v58h58V448L388,448z"/>
</g>
<g>
	<rect x="331" y="393" class="st0" width="56" height="56"/>
	<path class="st1" d="M386,394v54h-54v-54H386 M388,392h-58v58h58V392L388,392z"/>
</g>
<g>
	<rect x="331" y="113" class="st0" width="56" height="56"/>
	<path class="st1" d="M386,114v54h-54v-54H386 M388,112h-58v58h58V112L388,112z"/>
</g>
<g>
	<rect x="331" y="169" class="st0" width="56" height="56"/>
	<path class="st1" d="M386,170v54h-54v-54H386 M388,168h-58v58h58V168L388,168z"/>
</g>
<g>
	<rect x="331" y="225" class="st0" width="56" height="56"/>
	<path class="st1" d="M386,226v54h-54v-54H386 M388,224h-58v58h58V224L388,224z"/>
</g>
<g>
	<rect x="331" y="281" class="st0" width="56" height="56"/>
	<path class="st1" d="M386,282v54h-54v-54H386 M388,280h-58v58h58V280L388,280z"/>
</g>
<g>
	<rect x="331" y="337" class="st0" width="56" height="56"/>
	<path class="st1" d="M386,338v54h-54v-54H386 M388,336h-58v58h58V336L388,336z"/>
</g>
<g>
	<rect x="331" y="505" class="st0" width="56" height="56"/>
	<path class="st1" d="M386,506v54h-54v-54H386 M388,504h-58v58h58V504L388,504z"/>
</g>
<g>
	<rect x="424" y="1" class="st0" width="56" height="56"/>
	<path class="st1" d="M479,2v54h-54V2H479 M481,0h-58v58h58V0L481,0z"/>
</g>
<g>
	<rect x="424" y="57" class="st0" width="56" height="56"/>
	<path class="st1" d="M479,58v54h-54V58H479 M481,56h-58v58h58V56L481,56z"/>
</g>
<g>
	<rect x="424" y="449" class="st0" width="56" height="56"/>
	<path class="st1" d="M479,450v54h-54v-54H479 M481,448h-58v58h58V448L481,448z"/>
</g>
<g>
	<rect x="424" y="393" class="st0" width="56" height="56"/>
	<path class="st1" d="M479,394v54h-54v-54H479 M481,392h-58v58h58V392L481,392z"/>
</g>
<g>
	<rect x="424" y="113" class="st0" width="56" height="56"/>
	<path class="st1" d="M479,114v54h-54v-54H479 M481,112h-58v58h58V112L481,112z"/>
</g>
<g>
	<rect x="424" y="169" class="st0" width="56" height="56"/>
	<path class="st1" d="M479,170v54h-54v-54H479 M481,168h-58v58h58V168L481,168z"/>
</g>
<g>
	<rect x="424" y="225" class="st0" width="56" height="56"/>
	<path class="st1" d="M479,226v54h-54v-54H479 M481,224h-58v58h58V224L481,224z"/>
</g>
<g>
	<rect x="424" y="281" class="st0" width="56" height="56"/>
	<path class="st1" d="M479,282v54h-54v-54H479 M481,280h-58v58h58V280L481,280z"/>
</g>
<g>
	<rect x="424" y="337" class="st0" width="56" height="56"/>
	<path class="st1" d="M479,338v54h-54v-54H479 M481,336h-58v58h58V336L481,336z"/>
</g>
<g>
	<rect x="424" y="505" class="st0" width="56" height="56"/>
	<path class="st1" d="M479,506v54h-54v-54H479 M481,504h-58v58h58V504L481,504z"/>
</g>
<g>
	<rect x="424" y="561" class="st0" width="56" height="56"/>
	<path class="st1" d="M479,562v54h-54v-54H479 M481,560h-58v58h58V560L481,560z"/>
</g>
<g>
	<rect x="424" y="617" class="st0" width="56" height="56"/>
	<path class="st1" d="M479,618v54h-54v-54H479 M481,616h-58v58h58V616L481,616z"/>
</g>
<g>
	<rect x="424" y="673" class="st0" width="56" height="56"/>
	<path class="st1" d="M479,674v54h-54v-54H479 M481,672h-58v58h58V672L481,672z"/>
</g>
<g>
	<rect x="518" y="1" class="st0" width="56" height="56"/>
	<path class="st1" d="M573,2v54h-54V2H573 M575,0h-58v58h58V0L575,0z"/>
</g>
<g>
	<rect x="518" y="57" class="st0" width="56" height="56"/>
	<path class="st1" d="M573,58v54h-54V58H573 M575,56h-58v58h58V56L575,56z"/>
</g>
<g>
	<rect x="518" y="449" class="st0" width="56" height="56"/>
	<path class="st1" d="M573,450v54h-54v-54H573 M575,448h-58v58h58V448L575,448z"/>
</g>
<g>
	<rect x="518" y="393" class="st0" width="56" height="56"/>
	<path class="st1" d="M573,394v54h-54v-54H573 M575,392h-58v58h58V392L575,392z"/>
</g>
<g>
	<rect x="518" y="113" class="st0" width="56" height="56"/>
	<path class="st1" d="M573,114v54h-54v-54H573 M575,112h-58v58h58V112L575,112z"/>
</g>
<g>
	<rect x="518" y="169" class="st0" width="56" height="56"/>
	<path class="st1" d="M573,170v54h-54v-54H573 M575,168h-58v58h58V168L575,168z"/>
</g>
<g>
	<rect x="518" y="225" class="st0" width="56" height="56"/>
	<path class="st1" d="M573,226v54h-54v-54H573 M575,224h-58v58h58V224L575,224z"/>
</g>
<g>
	<rect x="518" y="281" class="st0" width="56" height="56"/>
	<path class="st1" d="M573,282v54h-54v-54H573 M575,280h-58v58h58V280L575,280z"/>
</g>
<g>
	<rect x="518" y="337" class="st0" width="56" height="56"/>
	<path class="st1" d="M573,338v54h-54v-54H573 M575,336h-58v58h58V336L575,336z"/>
</g>
<g>
	<rect x="518" y="505" class="st0" width="56" height="56"/>
	<path class="st1" d="M573,506v54h-54v-54H573 M575,504h-58v58h58V504L575,504z"/>
</g>
<g>
	<rect x="518" y="561" class="st0" width="56" height="56"/>
	<path class="st1" d="M573,562v54h-54v-54H573 M575,560h-58v58h58V560L575,560z"/>
</g>
<g>
	<rect x="518" y="617" class="st0" width="56" height="56"/>
	<path class="st1" d="M573,618v54h-54v-54H573 M575,616h-58v58h58V616L575,616z"/>
</g>
<g>
	<rect x="518" y="673" class="st0" width="56" height="56"/>
	<path class="st1" d="M573,674v54h-54v-54H573 M575,672h-58v58h58V672L575,672z"/>
</g>
<g>
	<rect x="613" y="1" class="st0" width="56" height="56"/>
	<path class="st1" d="M668,2v54h-54V2H668 M670,0h-58v58h58V0L670,0z"/>
</g>
<g>
	<rect x="613" y="57" class="st0" width="56" height="56"/>
	<path class="st1" d="M668,58v54h-54V58H668 M670,56h-58v58h58V56L670,56z"/>
</g>
<g>
	<rect x="613" y="449" class="st0" width="56" height="56"/>
	<path class="st1" d="M668,450v54h-54v-54H668 M670,448h-58v58h58V448L670,448z"/>
</g>
<g>
	<rect x="613" y="393" class="st0" width="56" height="56"/>
	<path class="st1" d="M668,394v54h-54v-54H668 M670,392h-58v58h58V392L670,392z"/>
</g>
<g>
	<rect x="613" y="113" class="st0" width="56" height="56"/>
	<path class="st1" d="M668,114v54h-54v-54H668 M670,112h-58v58h58V112L670,112z"/>
</g>
<g>
	<rect x="613" y="169" class="st0" width="56" height="56"/>
	<path class="st1" d="M668,170v54h-54v-54H668 M670,168h-58v58h58V168L670,168z"/>
</g>
<g>
	<rect x="613" y="225" class="st0" width="56" height="56"/>
	<path class="st1" d="M668,226v54h-54v-54H668 M670,224h-58v58h58V224L670,224z"/>
</g>
<g>
	<rect x="613" y="281" class="st0" width="56" height="56"/>
	<path class="st1" d="M668,282v54h-54v-54H668 M670,280h-58v58h58V280L670,280z"/>
</g>
<g>
	<rect x="613" y="337" class="st0" width="56" height="56"/>
	<path class="st1" d="M668,338v54h-54v-54H668 M670,336h-58v58h58V336L670,336z"/>
</g>
<g>
	<rect x="613" y="505" class="st0" width="56" height="56"/>
	<path class="st1" d="M668,506v54h-54v-54H668 M670,504h-58v58h58V504L670,504z"/>
</g>
<g>
	<rect x="613" y="561" class="st0" width="56" height="56"/>
	<path class="st1" d="M668,562v54h-54v-54H668 M670,560h-58v58h58V560L670,560z"/>
</g>
<g>
	<rect x="613" y="617" class="st0" width="56" height="56"/>
	<path class="st1" d="M668,618v54h-54v-54H668 M670,616h-58v58h58V616L670,616z"/>
</g>
<g>
	<rect x="613" y="673" class="st0" width="56" height="56"/>
	<path class="st1" d="M668,674v54h-54v-54H668 M670,672h-58v58h58V672L670,672z"/>
</g>
<g>
	<rect x="669" y="1" class="st0" width="56" height="56"/>
	<path class="st1" d="M724,2v54h-54V2H724 M726,0h-58v58h58V0L726,0z"/>
</g>
<g>
	<rect x="669" y="57" class="st0" width="56" height="56"/>
	<path class="st1" d="M724,58v54h-54V58H724 M726,56h-58v58h58V56L726,56z"/>
</g>
<g>
	<rect x="669" y="449" class="st0" width="56" height="56"/>
	<path class="st1" d="M724,450v54h-54v-54H724 M726,448h-58v58h58V448L726,448z"/>
</g>
<g>
	<rect x="669" y="393" class="st0" width="56" height="56"/>
	<path class="st1" d="M724,394v54h-54v-54H724 M726,392h-58v58h58V392L726,392z"/>
</g>
<g>
	<rect x="669" y="113" class="st0" width="56" height="56"/>
	<path class="st1" d="M724,114v54h-54v-54H724 M726,112h-58v58h58V112L726,112z"/>
</g>
<g>
	<rect x="669" y="169" class="st0" width="56" height="56"/>
	<path class="st1" d="M724,170v54h-54v-54H724 M726,168h-58v58h58V168L726,168z"/>
</g>
<g>
	<rect x="669" y="225" class="st0" width="56" height="56"/>
	<path class="st1" d="M724,226v54h-54v-54H724 M726,224h-58v58h58V224L726,224z"/>
</g>
<g>
	<rect x="669" y="281" class="st0" width="56" height="56"/>
	<path class="st1" d="M724,282v54h-54v-54H724 M726,280h-58v58h58V280L726,280z"/>
</g>
<g>
	<rect x="669" y="337" class="st0" width="56" height="56"/>
	<path class="st1" d="M724,338v54h-54v-54H724 M726,336h-58v58h58V336L726,336z"/>
</g>
<g>
	<rect x="669" y="505" class="st0" width="56" height="56"/>
	<path class="st1" d="M724,506v54h-54v-54H724 M726,504h-58v58h58V504L726,504z"/>
</g>
<g>
	<rect x="669" y="561" class="st0" width="56" height="56"/>
	<path class="st1" d="M724,562v54h-54v-54H724 M726,560h-58v58h58V560L726,560z"/>
</g>
<g>
	<rect x="669" y="617" class="st0" width="56" height="56"/>
	<path class="st1" d="M724,618v54h-54v-54H724 M726,616h-58v58h58V616L726,616z"/>
</g>
<g>
	<rect x="669" y="673" class="st0" width="56" height="56"/>
	<path class="st1" d="M724,674v54h-54v-54H724 M726,672h-58v58h58V672L726,672z"/>
</g>
<g>
	<rect x="759" y="1" class="st0" width="56" height="56"/>
	<path class="st1" d="M814,2v54h-54V2H814 M816,0h-58v58h58V0L816,0z"/>
</g>
<g>
	<rect x="759" y="56" class="st0" width="56" height="56"/>
	<path class="st1" d="M814,57v54h-54V57H814 M816,55h-58v58h58V55L816,55z"/>
</g>
<g>
	<rect x="759" y="448" class="st0" width="56" height="56"/>
	<path class="st1" d="M814,449v54h-54v-54H814 M816,447h-58v58h58V447L816,447z"/>
</g>
<g>
	<rect x="759" y="392" class="st0" width="56" height="56"/>
	<path class="st1" d="M814,393v54h-54v-54H814 M816,391h-58v58h58V391L816,391z"/>
</g>
<g>
	<rect x="759" y="112" class="st0" width="56" height="56"/>
	<path class="st1" d="M814,113v54h-54v-54H814 M816,111h-58v58h58V111L816,111z"/>
</g>
<g>
	<rect x="759" y="168" class="st0" width="56" height="56"/>
	<path class="st1" d="M814,169v54h-54v-54H814 M816,167h-58v58h58V167L816,167z"/>
</g>
<g>
	<rect x="759" y="224" class="st0" width="56" height="56"/>
	<path class="st1" d="M814,225v54h-54v-54H814 M816,223h-58v58h58V223L816,223z"/>
</g>
<g>
	<rect x="759" y="280" class="st0" width="56" height="56"/>
	<path class="st1" d="M814,281v54h-54v-54H814 M816,279h-58v58h58V279L816,279z"/>
</g>
<g>
	<rect x="759" y="336" class="st0" width="56" height="56"/>
	<path class="st1" d="M814,337v54h-54v-54H814 M816,335h-58v58h58V335L816,335z"/>
</g>
<g>
	<rect x="759" y="504" class="st0" width="56" height="56"/>
	<path class="st1" d="M814,505v54h-54v-54H814 M816,503h-58v58h58V503L816,503z"/>
</g>
<g>
	<rect x="759" y="560" class="st0" width="56" height="56"/>
	<path class="st1" d="M814,561v54h-54v-54H814 M816,559h-58v58h58V559L816,559z"/>
</g>
<g>
	<rect x="759" y="616" class="st0" width="56" height="56"/>
	<path class="st1" d="M814,617v54h-54v-54H814 M816,615h-58v58h58V615L816,615z"/>
</g>
<g>
	<rect x="759" y="672" class="st0" width="56" height="56"/>
	<path class="st1" d="M814,673v54h-54v-54H814 M816,671h-58v58h58V671L816,671z"/>
</g>
<g>
	<rect x="815" y="1" class="st0" width="56" height="56"/>
	<path class="st1" d="M870,2v54h-54V2H870 M872,0h-58v58h58V0L872,0z"/>
</g>
<g>
	<rect x="815" y="56" class="st0" width="56" height="56"/>
	<path class="st1" d="M870,57v54h-54V57H870 M872,55h-58v58h58V55L872,55z"/>
</g>
<g>
	<rect x="815" y="448" class="st0" width="56" height="56"/>
	<path class="st1" d="M870,449v54h-54v-54H870 M872,447h-58v58h58V447L872,447z"/>
</g>
<g>
	<rect x="815" y="392" class="st0" width="56" height="56"/>
	<path class="st1" d="M870,393v54h-54v-54H870 M872,391h-58v58h58V391L872,391z"/>
</g>
<g>
	<rect x="815" y="112" class="st0" width="56" height="56"/>
	<path class="st1" d="M870,113v54h-54v-54H870 M872,111h-58v58h58V111L872,111z"/>
</g>
<g>
	<rect x="815" y="168" class="st0" width="56" height="56"/>
	<path class="st1" d="M870,169v54h-54v-54H870 M872,167h-58v58h58V167L872,167z"/>
</g>
<g>
	<rect x="815" y="224" class="st0" width="56" height="56"/>
	<path class="st1" d="M870,225v54h-54v-54H870 M872,223h-58v58h58V223L872,223z"/>
</g>
<g>
	<rect x="815" y="280" class="st0" width="56" height="56"/>
	<path class="st1" d="M870,281v54h-54v-54H870 M872,279h-58v58h58V279L872,279z"/>
</g>
<g>
	<rect x="815" y="336" class="st0" width="56" height="56"/>
	<path class="st1" d="M870,337v54h-54v-54H870 M872,335h-58v58h58V335L872,335z"/>
</g>
<g>
	<rect x="815" y="504" class="st0" width="56" height="56"/>
	<path class="st1" d="M870,505v54h-54v-54H870 M872,503h-58v58h58V503L872,503z"/>
</g>
<g>
	<rect x="815" y="560" class="st0" width="56" height="56"/>
	<path class="st1" d="M870,561v54h-54v-54H870 M872,559h-58v58h58V559L872,559z"/>
</g>
<g>
	<rect x="815" y="616" class="st0" width="56" height="56"/>
	<path class="st1" d="M870,617v54h-54v-54H870 M872,615h-58v58h58V615L872,615z"/>
</g>
<g>
	<rect x="815" y="672" class="st0" width="56" height="56"/>
	<path class="st1" d="M870,673v54h-54v-54H870 M872,671h-58v58h58V671L872,671z"/>
</g>
<g>
	<rect x="914" y="50" class="st0" width="56" height="56"/>
	<path class="st1" d="M969,51v54h-54V51H969 M971,49h-58v58h58V49L971,49z"/>
</g>
<g>
	<rect x="914" y="106" class="st0" width="56" height="56"/>
	<path class="st1" d="M969,107v54h-54v-54H969 M971,105h-58v58h58V105L971,105z"/>
</g>
<g>
	<rect x="914" y="162" class="st0" width="56" height="56"/>
	<path class="st1" d="M969,163v54h-54v-54H969 M971,161h-58v58h58V161L971,161z"/>
</g>
<g>
	<rect x="914" y="218" class="st0" width="56" height="56"/>
	<path class="st1" d="M969,219v54h-54v-54H969 M971,217h-58v58h58V217L971,217z"/>
</g>
<g>
	<rect x="914" y="274" class="st0" width="56" height="56"/>
	<path class="st1" d="M969,275v54h-54v-54H969 M971,273h-58v58h58V273L971,273z"/>
</g>
<g>
	<rect x="914" y="330" class="st0" width="56" height="56"/>
	<path class="st1" d="M969,331v54h-54v-54H969 M971,329h-58v58h58V329L971,329z"/>
</g>
<g>
	<rect x="914" y="386" class="st0" width="56" height="56"/>
	<path class="st1" d="M969,387v54h-54v-54H969 M971,385h-58v58h58V385L971,385z"/>
</g>
<g>
	<rect x="914" y="499" class="st0" width="56" height="56"/>
	<path class="st1" d="M969,500v54h-54v-54H969 M971,498h-58v58h58V498L971,498z"/>
</g>
<g>
	<rect x="914" y="555" class="st0" width="56" height="56"/>
	<path class="st1" d="M969,556v54h-54v-54H969 M971,554h-58v58h58V554L971,554z"/>
</g>
<g>
	<rect x="914" y="611" class="st0" width="56" height="56"/>
	<path class="st1" d="M969,612v54h-54v-54H969 M971,610h-58v58h58V610L971,610z"/>
</g>
<g>
	<rect x="914" y="667" class="st0" width="56" height="56"/>
	<path class="st1" d="M969,668v54h-54v-54H969 M971,666h-58v58h58V666L971,666z"/>
</g>
<g>
	<rect x="275" y="611" class="st0" width="56" height="56"/>
	<path class="st1" d="M330,612v54h-54v-54H330 M332,610h-58v58h58V610L332,610z"/>
</g>
<g>
	<rect x="275" y="667" class="st0" width="56" height="56"/>
	<path class="st1" d="M330,668v54h-54v-54H330 M332,666h-58v58h58V666L332,666z"/>
</g>
<g>
	<rect x="331" y="611" class="st0" width="56" height="56"/>
	<path class="st1" d="M386,612v54h-54v-54H386 M388,610h-58v58h58V610L388,610z"/>
</g>
<g>
	<rect x="331" y="667" class="st0" width="56" height="56"/>
	<path class="st1" d="M386,668v54h-54v-54H386 M388,666h-58v58h58V666L388,666z"/>
</g>
<g>
	<rect x="300" y="761" class="st0" width="56" height="56"/>
	<path class="st1" d="M355,762v54h-54v-54H355 M357,760h-58v58h58V760L357,760z"/>
</g>
<g>
	<rect x="356" y="761" class="st0" width="56" height="56"/>
	<path class="st1" d="M411,762v54h-54v-54H411 M413,760h-58v58h58V760L413,760z"/>
</g>
<g>
	<rect x="188" y="761" class="st0" width="56" height="56"/>
	<path class="st1" d="M243,762v54h-54v-54H243 M245,760h-58v58h58V760L245,760z"/>
</g>
<g>
	<rect x="244" y="761" class="st0" width="56" height="56"/>
	<path class="st1" d="M299,762v54h-54v-54H299 M301,760h-58v58h58V760L301,760z"/>
</g>
<g>
	<rect x="76" y="761" class="st0" width="56" height="56"/>
	<path class="st1" d="M131,762v54H77v-54H131 M133,760H75v58h58V760L133,760z"/>
</g>
<g>
	<rect x="132" y="761" class="st0" width="56" height="56"/>
	<path class="st1" d="M187,762v54h-54v-54H187 M189,760h-58v58h58V760L189,760z"/>
</g>
<g>
	<rect x="669" y="761" class="st0" width="56" height="56"/>
	<path class="st1" d="M724,762v54h-54v-54H724 M726,760h-58v58h58V760L726,760z"/>
</g>
<g>
	<rect x="725" y="761" class="st0" width="56" height="56"/>
	<path class="st1" d="M780,762v54h-54v-54H780 M782,760h-58v58h58V760L782,760z"/>
</g>
<g>
	<rect x="557" y="761" class="st0" width="56" height="56"/>
	<path class="st1" d="M612,762v54h-54v-54H612 M614,760h-58v58h58V760L614,760z"/>
</g>
<g>
	<rect x="613" y="761" class="st0" width="56" height="56"/>
	<path class="st1" d="M668,762v54h-54v-54H668 M670,760h-58v58h58V760L670,760z"/>
</g>
<g>
	<rect x="445" y="761" class="st0" width="56" height="56"/>
	<path class="st1" d="M500,762v54h-54v-54H500 M502,760h-58v58h58V760L502,760z"/>
</g>
<g>
	<rect x="501" y="761" class="st0" width="56" height="56"/>
	<path class="st1" d="M556,762v54h-54v-54H556 M558,760h-58v58h58V760L558,760z"/>
</g>
<g>
	<rect x="781" y="761" class="st0" width="56" height="56"/>
	<path class="st1" d="M836,762v54h-54v-54H836 M838,760h-58v58h58V760L838,760z"/>
</g>
<g>
	<rect x="837" y="761" class="st0" width="56" height="56"/>
	<path class="st1" d="M892,762v54h-54v-54H892 M894,760h-58v58h58V760L894,760z"/>
</g>
<g>
	<rect x="913" y="760" class="st2" width="58" height="58"/>
</g>
<g>
	<rect y="760" class="st2" width="58" height="58"/>
</g>
<text transform="matrix(0.7071 0.7071 -0.7071 0.7071 11.0659 776.8814)" class="st3 st4">ENTER</text>
<text transform="matrix(0.7071 -0.7071 0.7071 0.7071 935.1399 801.6741)" class="st3 st4">EXIT</text>
<text transform="matrix(1 0 0 1 21.6693 700.5146)" class="st1 st3 st5">1</text>
<text transform="matrix(1 0 0 1 21.6692 644.5151)" class="st1 st3 st5">2</text>
<text transform="matrix(1 0 0 1 21.6692 588.5151)" class="st1 st3 st5">3</text>
<text transform="matrix(1 0 0 1 21.6692 532.5151)" class="st1 st3 st5">4</text>
<text transform="matrix(1 0 0 1 21.6693 476.5151)" class="st1 st3 st5">5</text>
<g>
	<rect x="1" y="384" class="st0" width="56" height="56"/>
	<path class="st1" d="M56,385v54H2v-54H56 M58,383H0v58h58V383L58,383z"/>
</g>
<text transform="matrix(1 0 0 1 21.6692 420.5151)" class="st1 st3 st5">6</text>
<g>
	<rect x="1" y="328" class="st0" width="56" height="56"/>
	<path class="st1" d="M56,329v54H2v-54H56 M58,327H0v58h58V327L58,327z"/>
</g>
<text transform="matrix(1 0 0 1 21.6692 364.5151)" class="st1 st3 st5">7</text>
<g>
	<rect x="1" y="272" class="st0" width="56" height="56"/>
	<path class="st1" d="M56,273v54H2v-54H56 M58,271H0v58h58V271L58,271z"/>
</g>
<text transform="matrix(1 0 0 1 21.6692 308.5151)" class="st1 st3 st5">8</text>
<g>
	<rect x="1" y="216" class="st0" width="56" height="56"/>
	<path class="st1" d="M56,217v54H2v-54H56 M58,215H0v58h58V215L58,215z"/>
</g>
<text transform="matrix(1 0 0 1 21.6693 252.5151)" class="st1 st3 st5">9</text>
<text transform="matrix(1 0 0 1 14.3381 196.5151)" class="st1 st3 st5">10</text>
<text transform="matrix(1 0 0 1 14.3381 140.5151)" class="st1 st3 st5">11</text>
<text transform="matrix(1 0 0 1 14.3381 84.5151)" class="st1 st3 st5">12</text>
<text transform="matrix(1 0 0 1 138.3381 37.5151)" class="st1 st3 st5">13</text>
<text transform="matrix(1 0 0 1 138.3383 93.5151)" class="st1 st3 st5">14</text>
<text transform="matrix(1 0 0 1 138.3381 484.5151)" class="st1 st3 st5">21</text>
<text transform="matrix(1 0 0 1 194.3381 485.5151)" class="st1 st3 st5">24</text>
<text transform="matrix(1 0 0 1 194.3381 429.5151)" class="st1 st3 st5">25</text>
<text transform="matrix(1 0 0 1 138.3381 149.5151)" class="st1 st3 st5">15</text>
<text transform="matrix(1 0 0 1 138.3381 205.5151)" class="st1 st3 st5">16</text>
<text transform="matrix(1 0 0 1 138.3381 261.5151)" class="st1 st3 st5">17</text>
<text transform="matrix(1 0 0 1 138.3381 317.5151)" class="st1 st3 st5">18</text>
<text transform="matrix(1 0 0 1 288.3381 37.5151)" class="st1 st3 st5">33</text>
<text transform="matrix(1 0 0 1 288.3381 92.5151)" class="st1 st3 st5">34</text>
<text transform="matrix(1 0 0 1 288.3381 149.5151)" class="st1 st3 st5">35</text>
<text transform="matrix(1 0 0 1 288.3381 205.5151)" class="st1 st3 st5">36</text>
<text transform="matrix(1 0 0 1 288.3381 261.5151)" class="st1 st3 st5">37</text>
<text transform="matrix(1 0 0 1 288.3381 317.5151)" class="st1 st3 st5">38</text>
<text transform="matrix(1 0 0 1 288.3381 373.5151)" class="st1 st3 st5">39</text>
<text transform="matrix(1 0 0 1 288.3381 429.5151)" class="st1 st3 st5">40</text>
<text transform="matrix(1 0 0 1 288.3381 485.5151)" class="st1 st3 st5">41</text>
<text transform="matrix(1 0 0 1 288.3381 541.5151)" class="st1 st3 st5">42</text>
<text transform="matrix(1 0 0 1 138.3381 373.5151)" class="st1 st3 st5">19</text>
<text transform="matrix(1 0 0 1 138.3381 429.5151)" class="st1 st3 st5">20</text>
<text transform="matrix(1 0 0 1 288.3381 647.5151)" class="st1 st3 st5">43</text>
<text transform="matrix(1 0 0 1 288.3381 702.5151)" class="st1 st3 st5">44</text>
<text transform="matrix(1 0 0 1 344.3381 702.5151)" class="st1 st3 st5">45</text>
<text transform="matrix(1 0 0 1 344.3381 646.5151)" class="st1 st3 st5">46</text>
<text transform="matrix(1 0 0 1 344.3381 541.5151)" class="st1 st3 st5">47</text>
<text transform="matrix(1 0 0 1 344.3381 37.5151)" class="st1 st3 st5">56</text>
<text transform="matrix(1 0 0 1 437.3381 37.5151)" class="st1 st3 st5">57</text>
<text transform="matrix(1 0 0 1 437.3381 709.5151)" class="st1 st3 st5">69</text>
<text transform="matrix(1 0 0 1 531.3381 709.5151)" class="st1 st3 st5">70</text>
<text transform="matrix(1 0 0 1 531.3381 37.5151)" class="st1 st3 st5">82</text>
<text transform="matrix(1 0 0 1 194.3381 373.5151)" class="st1 st3 st5">26</text>
<text transform="matrix(1 0 0 1 194.3381 316.5151)" class="st1 st3 st5">27</text>
<text transform="matrix(1 0 0 1 194.3381 261.5151)" class="st1 st3 st5">28</text>
<text transform="matrix(1 0 0 1 194.3381 205.5151)" class="st1 st3 st5">29</text>
<text transform="matrix(1 0 0 1 194.3381 149.5151)" class="st1 st3 st5">30</text>
<text transform="matrix(1 0 0 1 194.3381 93.5151)" class="st1 st3 st5">31</text>
<text transform="matrix(1 0 0 1 194.3381 36.5151)" class="st1 st3 st5">32</text>
<text transform="matrix(1 0 0 1 344.3381 93.5151)" class="st1 st3 st5">55</text>
<text transform="matrix(1 0 0 1 344.3381 149.5151)" class="st1 st3 st5">54</text>
<text transform="matrix(1 0 0 1 344.3381 205.5151)" class="st1 st3 st5">53</text>
<text transform="matrix(1 0 0 1 344.3381 261.5151)" class="st1 st3 st5">52</text>
<text transform="matrix(1 0 0 1 344.3381 317.5151)" class="st1 st3 st5">51</text>
<text transform="matrix(1 0 0 1 344.3381 373.5151)" class="st1 st3 st5">50</text>
<text transform="matrix(1 0 0 1 344.3381 429.5151)" class="st1 st3 st5">49</text>
<text transform="matrix(1 0 0 1 344.3381 485.5151)" class="st1 st3 st5">48</text>
<text transform="matrix(1 0 0 1 437.3381 93.5151)" class="st1 st3 st5">58</text>
<text transform="matrix(1 0 0 1 437.3381 149.5151)" class="st1 st3 st5">59</text>
<text transform="matrix(1 0 0 1 437.3381 205.5151)" class="st1 st3 st5">60</text>
<text transform="matrix(1 0 0 1 437.3381 261.5151)" class="st1 st3 st5">61</text>
<text transform="matrix(1 0 0 1 437.3381 317.5151)" class="st1 st3 st5">62</text>
<text transform="matrix(1 0 0 1 437.3381 373.5151)" class="st1 st3 st5">63</text>
<text transform="matrix(1 0 0 1 437.3381 429.5151)" class="st1 st3 st5">64</text>
<text transform="matrix(1 0 0 1 437.3381 485.5151)" class="st1 st3 st5">65</text>
<text transform="matrix(1 0 0 1 437.3381 541.5151)" class="st1 st3 st5">66</text>
<text transform="matrix(1 0 0 1 437.3381 597.5151)" class="st1 st3 st5">67</text>
<text transform="matrix(1 0 0 1 437.3381 649.5151)" class="st1 st3 st5">68</text>
<text transform="matrix(1 0 0 1 531.3381 597.5151)" class="st1 st3 st5">72</text>
<text transform="matrix(1 0 0 1 531.3381 653.5151)" class="st1 st3 st5">71</text>
<text transform="matrix(1 0 0 1 531.3381 541.5151)" class="st1 st3 st5">73</text>
<text transform="matrix(1 0 0 1 531.3381 483.5151)" class="st1 st3 st5">74</text>
<text transform="matrix(1 0 0 1 531.3381 428.5151)" class="st1 st3 st5">75</text>
<text transform="matrix(1 0 0 1 531.3381 373.5151)" class="st1 st3 st5">76</text>
<text transform="matrix(1 0 0 1 531.3381 317.5151)" class="st1 st3 st5">77</text>
<text transform="matrix(1 0 0 1 531.3381 261.5151)" class="st1 st3 st5">78</text>
<text transform="matrix(1 0 0 1 531.3381 205.5151)" class="st1 st3 st5">79</text>
<text transform="matrix(1 0 0 1 531.3381 149.5151)" class="st1 st3 st5">80</text>
<text transform="matrix(1 0 0 1 531.3381 93.5151)" class="st1 st3 st5">81</text>
<text transform="matrix(1 0 0 1 626.3381 709.5151)" class="st1 st3 st5">95</text>
<text transform="matrix(1 0 0 1 626.3381 35.5151)" class="st1 st3 st5">83</text>
<text transform="matrix(1 0 0 1 626.3381 93.5151)" class="st1 st3 st5">84</text>
<text transform="matrix(1 0 0 1 626.3381 149.5151)" class="st1 st3 st5">85</text>
<text transform="matrix(1 0 0 1 626.3381 205.5151)" class="st1 st3 st5">86</text>
<text transform="matrix(1 0 0 1 626.3381 261.5151)" class="st1 st3 st5">87</text>
<text transform="matrix(1 0 0 1 626.3381 317.5151)" class="st1 st3 st5">88</text>
<text transform="matrix(1 0 0 1 626.3381 373.5151)" class="st1 st3 st5">89</text>
<text transform="matrix(1 0 0 1 626.3381 429.5151)" class="st1 st3 st5">90</text>
<text transform="matrix(1 0 0 1 626.3381 485.5151)" class="st1 st3 st5">91</text>
<text transform="matrix(1 0 0 1 626.3381 541.5151)" class="st1 st3 st5">92</text>
<text transform="matrix(1 0 0 1 626.3381 596.5151)" class="st1 st3 st5">93</text>
<text transform="matrix(1 0 0 1 626.3381 653.5151)" class="st1 st3 st5">94</text>
<text transform="matrix(1 0 0 1 682.3381 707.5151)" class="st1 st3 st5">96</text>
<text transform="matrix(1 0 0 1 682.3381 653.5151)" class="st1 st3 st5">97</text>
<text transform="matrix(1 0 0 1 682.3381 597.5151)" class="st1 st3 st5">98</text>
<text transform="matrix(1 0 0 1 682.3381 541.5151)" class="st1 st3 st5">99</text>
<text transform="matrix(1 0 0 1 675.0069 485.5151)" class="st1 st3 st5">100</text>
<text transform="matrix(1 0 0 1 675.0071 429.5151)" class="st1 st3 st5">101</text>
<text transform="matrix(1 0 0 1 675.0076 373.5151)" class="st1 st3 st5">102</text>
<text transform="matrix(1 0 0 1 675.0076 317.5151)" class="st1 st3 st5">103</text>
<text transform="matrix(1 0 0 1 675.0076 261.5151)" class="st1 st3 st5">104</text>
<text transform="matrix(1 0 0 1 675.0076 205.5151)" class="st1 st3 st5">105</text>
<text transform="matrix(1 0 0 1 675.0076 149.5151)" class="st1 st3 st5">106</text>
<text transform="matrix(1 0 0 1 675.0071 93.5151)" class="st1 st3 st5">107</text>
<text transform="matrix(1 0 0 1 675.0076 37.5151)" class="st1 st3 st5">108</text>
<text transform="matrix(1 0 0 1 765.0073 37.5151)" class="st1 st3 st5">109</text>
<text transform="matrix(1 0 0 1 765.0073 708.5151)" class="st1 st3 st5">121</text>
<text transform="matrix(1 0 0 1 821.0073 708.5151)" class="st1 st3 st5">122</text>
<text transform="matrix(1 0 0 1 821.0074 37.5151)" class="st1 st3 st5">134</text>
<text transform="matrix(1 0 0 1 920.0074 86.5151)" class="st1 st3 st5">135</text>
<text transform="matrix(1 0 0 1 920.0073 422.5151)" class="st1 st3 st5">141</text>
<text transform="matrix(1 0 0 1 920.0073 366.5151)" class="st1 st3 st5">140</text>
<text transform="matrix(1 0 0 1 920.0073 310.5151)" class="st1 st3 st5">139</text>
<text transform="matrix(1 0 0 1 920.0073 254.5151)" class="st1 st3 st5">138</text>
<text transform="matrix(1 0 0 1 920.0073 198.5151)" class="st1 st3 st5">137</text>
<text transform="matrix(1 0 0 1 920.0073 142.5151)" class="st1 st3 st5">136</text>
<text transform="matrix(1 0 0 1 765.0073 92.5151)" class="st1 st3 st5">110</text>
<text transform="matrix(1 0 0 1 765.0076 148.5151)" class="st1 st3 st5">111</text>
<text transform="matrix(1 0 0 1 765.0073 204.5151)" class="st1 st3 st5">112</text>
<text transform="matrix(1 0 0 1 765.0076 260.5151)" class="st1 st3 st5">113</text>
<text transform="matrix(1 0 0 1 765.0073 316.5151)" class="st1 st3 st5">114</text>
<text transform="matrix(1 0 0 1 765.0073 372.5151)" class="st1 st3 st5">115</text>
<text transform="matrix(1 0 0 1 765.0073 428.5151)" class="st1 st3 st5">116</text>
<text transform="matrix(1 0 0 1 765.0073 484.5151)" class="st1 st3 st5">117</text>
<text transform="matrix(1 0 0 1 765.0073 540.5151)" class="st1 st3 st5">118</text>
<text transform="matrix(1 0 0 1 765.0073 596.5151)" class="st1 st3 st5">119</text>
<text transform="matrix(1 0 0 1 765.0073 652.5151)" class="st1 st3 st5">120</text>
<text transform="matrix(1 0 0 1 821.0073 652.5151)" class="st1 st3 st5">123</text>
<text transform="matrix(1 0 0 1 821.0073 596.5151)" class="st1 st3 st5">124</text>
<text transform="matrix(1 0 0 1 821.0073 540.5151)" class="st1 st3 st5">125</text>
<text transform="matrix(1 0 0 1 821.0073 484.5151)" class="st1 st3 st5">126</text>
<text transform="matrix(1 0 0 1 821.0073 428.5151)" class="st1 st3 st5">127</text>
<text transform="matrix(1 0 0 1 821.0073 372.5151)" class="st1 st3 st5">128</text>
<text transform="matrix(1 0 0 1 821.0073 316.5151)" class="st1 st3 st5">129</text>
<text transform="matrix(1 0 0 1 821.0073 260.5151)" class="st1 st3 st5">130</text>
<text transform="matrix(1 0 0 1 821.0073 204.5151)" class="st1 st3 st5">131</text>
<text transform="matrix(1 0 0 1 821.0073 148.5151)" class="st1 st3 st5">132</text>
<text transform="matrix(1 0 0 1 821.0073 92.5151)" class="st1 st3 st5">133</text>
<text transform="matrix(1 0 0 1 920.0073 535.5151)" class="st1 st3 st5">142</text>
<text transform="matrix(1 0 0 1 920.0073 591.5151)" class="st1 st3 st5">143</text>
<text transform="matrix(1 0 0 1 920.0073 647.5151)" class="st1 st3 st5">144</text>
<text transform="matrix(1 0 0 1 920.0073 703.5151)" class="st1 st3 st5">145</text>
<text transform="matrix(1 0 0 1 843.0073 797.5151)" class="st1 st3 st5">146</text>
<text transform="matrix(1 0 0 1 787.0073 797.5151)" class="st1 st3 st5">147</text>
<text transform="matrix(1 0 0 1 731.0073 797.5151)" class="st1 st3 st5">148</text>
<text transform="matrix(1 0 0 1 675.0073 797.5151)" class="st1 st3 st5">149</text>
<text transform="matrix(1 0 0 1 619.0073 797.5151)" class="st1 st3 st5">150</text>
<text transform="matrix(1 0 0 1 563.0073 797.5151)" class="st1 st3 st5">151</text>
<text transform="matrix(1 0 0 1 507.0073 797.5151)" class="st1 st3 st5">152</text>
<text transform="matrix(1 0 0 1 451.0073 797.5151)" class="st1 st3 st5">153</text>
<text transform="matrix(1 0 0 1 360.0073 797.5151)" class="st1 st3 st5">154</text>
<text transform="matrix(1 0 0 1 305.0073 798.5151)" class="st1 st3 st5">155</text>
<text transform="matrix(1 0 0 1 248.0073 799.5151)" class="st1 st3 st5">156</text>
<text transform="matrix(1 0 0 1 195.0073 798.5151)" class="st1 st3 st5">157</text>
<text transform="matrix(1 0 0 1 138.0073 797.5151)" class="st1 st3 st5">158</text>
<text transform="matrix(1 0 0 1 81.0073 795.5151)" class="st1 st3 st5">159</text>
</svg>
