<?xml version="1.0" encoding="utf-8"?>
<!-- Generator: Adobe Illustrator 21.0.0, SVG Export Plug-In . SVG Version: 6.00 Build 0)  -->
<svg version="1.1" id="Layer_1" xmlns="http://www.w3.org/2000/svg" xmlns:xlink="http://www.w3.org/1999/xlink" x="0px" y="0px"
	 viewBox="0 0 491.9 136.5" style="enable-background:new 0 0 491.9 136.5;" xml:space="preserve">
<style type="text/css">
	.st0{fill:#FFFFFF;}
	.st1{fill:none;stroke:#FFFFFF;stroke-miterlimit:10;}
	.st2{fill:none;stroke:#FFFFFF;stroke-miterlimit:10;stroke-dasharray:13.0174,13.0174;}
	.st3{fill:none;stroke:#FFFFFF;stroke-miterlimit:10;stroke-dasharray:12;}
</style>
<g>
	<title>Asset 1</title>
	<g id="Layer_2_1_">
		<g id="Layer_2-2_1_">
			<path class="st0" d="M140.3,110l-19.9-30.5l-19.9,30.9h-12l26-40l-26-40h12l19.9,30.6l19.9-30.6h12l-25.9,39.8l25.9,39.7H140.3z"
				/>
			<path class="st0" d="M174.3,40.4v24h30.1v9.9h-30.1l0.5,35.8h-9.9V30.5h49.4v9.9H174.3z"/>
			<path class="st0" d="M306.1,110V30.5h9.9V110H306.1z"/>
			<path class="st0" d="M384,110l-20-34.8h-23.2V110H331V30.5h42.2c6.1,0,11.3,2.2,15.7,6.7s6.6,9.7,6.7,15.8
				c0.1,5.5-2.1,10.9-5.9,14.9c-3.7,4.2-8.8,6.8-14.3,7.3l20.2,34.9L384,110z M385.7,52.9c0-3.3-1.3-6.5-3.7-8.8
				c-2.3-2.4-5.5-3.7-8.8-3.7h-32.4v24.9h32.4c3.3,0,6.4-1.3,8.8-3.6C384.4,59.4,385.8,56.2,385.7,52.9z"/>
			<polygon class="st0" points="229.9,76 212.1,110 222.6,110 242.5,70.2 			"/>
			<polygon class="st0" points="276.4,76 263.8,70.8 283.2,110 293.8,110 			"/>
			<polygon class="st0" points="251.6,37.5 246.3,65.3 252.4,70.6 252.9,33.7 252.9,70.5 259.9,65.3 254.9,37.8 260.8,65.5 
				274.2,70.4 253.1,30.6 231.9,70.4 245.3,65.5 			"/>
		</g>
	</g>
</g>
<g>
	<g>
		<path class="st1" d="M89,90c0,0-2.2,0-5.9,0.9"/>
		<path class="st2" d="M70.9,95.5c-6.4,3.4-13.7,8.8-20.9,17.5c-11.3,13.7-26.9,19.2-37.6,21.5"/>
		<path class="st1" d="M6,135.5C2.3,136,0,136,0,136"/>
	</g>
</g>
<path class="st3" d="M395.5,80.5c0,0,26,0,36-24s27-26,27-26"/>
<g>
	<title>Asset 6</title>
	<g id="Layer_2_2_">
		<g id="Layer_2-2_2_">
			<path class="st0" d="M491.9,0.8L491.9,0.8c0-0.1,0-0.2,0-0.2l0,0c0-0.1,0-0.2-0.1-0.3l0,0l0,0l0,0c0-0.1-0.1-0.1-0.2-0.2l0,0
				c-0.1-0.1-0.2-0.2-0.3-0.2h-0.1H491h-0.2L449,8.5c-0.4,0.1-0.7,0.5-0.6,0.8c0,0.2,0.2,0.4,0.4,0.5l12.1,6.2l2.1,11.4l0,0
				c0,0.1,0,0.1,0,0.2v0.1c0,0.1,0,0.1,0.1,0.2l0,0l0,0l0,0l0.1,0.1l0,0l0,0l0.1,0.1h0.1c0.1,0,0.1,0,0.2,0l0,0
				c0.2,0,0.4-0.1,0.5-0.2l8-5.3l8.4,5.3c0.4,0.2,0.8,0.1,1-0.2c0,0,0.1-0.1,0.1-0.2L491.9,0.8L491.9,0.8L491.9,0.8L491.9,0.8z
				 M483,4.9l-17.2,12.7l-0.1,0.1l0,0l0,0v0.1l-0.1,0.1l0,0l0,0l-2,6.4l-1.6-8.7L483,4.9z M464.8,25.7l2-6.4l3.1,2l0.8,0.6l-3,2
				L464.8,25.7z M485.7,2l-24.4,12.4l-10.2-5.3L485.7,2z M480.3,26.3l-11-7.2l-1.7-1.1l21.7-15.9L480.3,26.3z"/>
		</g>
	</g>
</g>
</svg>
